<svg xmlns="http://www.w3.org/2000/svg" version="1.1" xmlns:xlink="http://www.w3.org/1999/xlink" xmlns:svgjs="http://svgjs.com/svgjs" width="1000" height="1000"><rect width="1000" height="1000" rx="250" ry="250" fill="#55446c"></rect><g transform="matrix(20.833333333333332,0,0,20.833333333333332,-0.38570531209308,0.4957926670710435)"><svg xmlns="http://www.w3.org/2000/svg" version="1.1" xmlns:xlink="http://www.w3.org/1999/xlink" xmlns:svgjs="http://svgjs.com/svgjs" width="48" height="48"><svg xmlns:dc="http://purl.org/dc/elements/1.1/" xmlns:cc="http://creativecommons.org/ns#" xmlns:rdf="http://www.w3.org/1999/02/22-rdf-syntax-ns#" xmlns:svg="http://www.w3.org/2000/svg" xmlns="http://www.w3.org/2000/svg" xmlns:sodipodi="http://sodipodi.sourceforge.net/DTD/sodipodi-0.dtd" xmlns:inkscape="http://www.inkscape.org/namespaces/inkscape" inkscape:version="1.0 (4035a4fb49, 2020-05-01)" sodipodi:docname="emoji_nature_FILL0_wght400_GRAD0_opsz48.svg" id="svg4" version="1.1" width="48" height="48">
  <metadata id="metadata10">
    <rdf:rdf>
      <cc:work rdf:about="">
        <dc:format>image/svg+xml</dc:format>
        <dc:type rdf:resource="http://purl.org/dc/dcmitype/StillImage"></dc:type>
      </cc:work>
    </rdf:rdf>
  </metadata>
  <defs id="defs8"></defs>
  <sodipodi:namedview inkscape:current-layer="svg4" inkscape:window-maximized="1" inkscape:window-y="-9" inkscape:window-x="-9" inkscape:cy="24" inkscape:cx="24" inkscape:zoom="16.86825" showgrid="false" id="namedview6" inkscape:window-height="991" inkscape:window-width="1920" inkscape:pageshadow="2" inkscape:pageopacity="0" guidetolerance="10" gridtolerance="10" objecttolerance="10" borderopacity="1" bordercolor="#666666" pagecolor="#ffffff"></sodipodi:namedview>
  <path style="fill:#1c241f" id="path2" d="m36.15 17.45-1.9 1.7q-.55.5-1.4.575-.85.075-1.55-.425-.7-.5-.825-1.35-.125-.85.075-1.5l.85-2.9-2.15-1.2q-.7-.4-.9-1.125-.2-.725.05-1.525.25-.8.85-1.2.6-.4 1.45-.4h2.45l.75-2.25q.25-.75.825-1.325t1.425-.575q.85 0 1.425.575.575.575.825 1.325l.75 2.25h2.45q.75 0 1.4.425.65.425.9 1.175.25.7.05 1.475-.2.775-.95 1.175l-2.15 1.2.85 2.9q.25.7.125 1.525T41 19.3q-.7.45-1.55.4-.85-.05-1.4-.55Zm0-3q.85 0 1.425-.575.575-.575.575-1.425 0-.85-.575-1.425-.575-.575-1.425-.575-.85 0-1.425.575-.575.575-.575 1.425 0 .85.575 1.425.575.575 1.425.575Zm-9.7 22q1.1 2.7-.775 5.125T20.75 44q-1.6 0-2.9-.775-1.3-.775-2.05-2.375-3.35.35-6.1-2.375Q6.95 35.75 7.15 32.4q-1.5-.8-2.325-2.425Q4 28.35 4 26.9q0-3.35 2.35-4.975Q8.7 20.3 12 21.75l3 1.2q.85-1.85 2.475-2.875t3.575-1.125v-3.1q0-.55.35-.875.35-.325.9-.325t.875.325q.325.325.325.875v3.3q2.05.4 3.6 2.15 1.55 1.75 1.9 3.35h3.25q.55 0 .9.35t.35.9q0 .55-.35.9t-.9.35H29.2q-.15 1.95-1.15 3.575-1 1.625-2.85 2.475ZM14.9 37.9q-.15-1.35.1-2.775.25-1.425.75-2.775-1.35.7-2.775.85-1.425.15-2.875-.05.1 1.65 1.65 3.2 1.55 1.55 3.15 1.55Zm-3.7-7.65q2 0 4.225-1.075Q17.65 28.1 18.4 27.6l-7.1-2.9q-1.25-.55-2.775.125T7 26.8q0 1.3 1.675 2.375T11.2 30.25ZM20.75 41q1.55 0 2.475-1.025t.375-2.425l-3-7.75q-.9 1.45-1.8 3.075-.9 1.625-.9 4.125 0 1 .725 2.5T20.75 41ZM24 30.4q1.3-.75 1.75-1.8.45-1.05.45-2.25 0-1.75-1.275-3.025T21.9 22.05q-1.2 0-2.325.55-1.125.55-1.675 1.8l4.35 1.7Zm-8.25 1.95Z"></path>
  <path id="path835" d="m 32.232185,19.696948 c -0.04131,-0.02553 -0.09455,-0.03441 -0.118312,-0.01973 -0.02376,0.01468 -0.05995,-4.15e-4 -0.08043,-0.03355 -0.02048,-0.03314 -0.115694,-0.06025 -0.211586,-0.06025 -0.09589,0 -0.17435,-0.02488 -0.17435,-0.05529 0,-0.03041 -0.05629,-0.07315 -0.125092,-0.09499 -0.344792,-0.109433 -0.802549,-0.63545 -0.941939,-1.082402 -0.228609,-0.733027 -0.141791,-1.967849 0.18095,-2.573662 0.02964,-0.05563 0.07123,-0.209621 0.09243,-0.34219 0.0212,-0.13257 0.06055,-0.254637 0.08745,-0.271262 0.0269,-0.01662 0.03375,-0.06973 0.01522,-0.118006 -0.01853,-0.04828 -0.0071,-0.120788 0.02538,-0.16113 0.03249,-0.04034 0.07704,-0.16672 0.09901,-0.280839 0.02197,-0.11412 0.06262,-0.260845 0.09034,-0.326057 0.02772,-0.06521 0.09092,-0.250504 0.140448,-0.411762 0.08661,-0.28201 0.08527,-0.29734 -0.03514,-0.401774 -0.06886,-0.05972 -0.193635,-0.124692 -0.277288,-0.144386 -0.08365,-0.01969 -0.21212,-0.09031 -0.285482,-0.156927 -0.07336,-0.06662 -0.133387,-0.103968 -0.133387,-0.08301 0,0.05018 -0.728244,-0.374174 -0.784592,-0.457186 -0.02396,-0.03529 -0.04396,-0.04234 -0.04446,-0.01567 -4.98e-4,0.02667 -0.07728,-0.0059 -0.170628,-0.07235 -0.09334,-0.06647 -0.182915,-0.107656 -0.199042,-0.09153 -0.01613,0.01613 -0.06307,-0.01134 -0.104312,-0.06103 -0.04124,-0.0497 -0.102409,-0.09036 -0.135922,-0.09036 -0.109405,0 -0.590756,-0.557203 -0.698771,-0.808884 -0.110348,-0.257118 -0.188794,-0.725991 -0.18437,-1.101985 0.0027,-0.228259 0.237642,-0.9983395 0.376265,-1.2332247 0.193059,-0.3271238 0.965803,-0.9432019 1.128637,-0.8998179 0.02332,0.00621 0.116694,-0.017919 0.20749,-0.053629 0.106554,-0.041908 0.693143,-0.061606 1.654471,-0.055559 1.581131,0.00995 1.520055,0.019464 1.595619,-0.2486611 0.0069,-0.024454 0.0192,-0.057801 0.02735,-0.074104 0.0082,-0.016303 0.02149,-0.056319 0.02964,-0.088924 0.0082,-0.032606 0.02149,-0.072622 0.02964,-0.088925 0.0082,-0.016303 0.02149,-0.056319 0.02964,-0.088924 0.0082,-0.032606 0.02149,-0.072622 0.02964,-0.088925 0.0082,-0.016303 0.02149,-0.056319 0.02964,-0.088925 0.0082,-0.032606 0.02149,-0.072622 0.02964,-0.088924 0.0082,-0.016303 0.02149,-0.056319 0.02964,-0.088924 0.0082,-0.032606 0.02149,-0.072622 0.02964,-0.088924 0.0082,-0.016303 0.02149,-0.056319 0.02964,-0.088925 0.0082,-0.032606 0.02149,-0.072622 0.02964,-0.088925 0.0082,-0.016303 0.02149,-0.056319 0.02964,-0.088924 0.0082,-0.032606 0.02149,-0.072622 0.02964,-0.088925 0.0082,-0.016303 0.02149,-0.056319 0.02964,-0.088924 0.0082,-0.032606 0.02149,-0.072622 0.02964,-0.088925 0.0082,-0.016303 0.02149,-0.056319 0.02964,-0.088925 0.0082,-0.032606 0.02149,-0.072622 0.02964,-0.088924 0.0082,-0.016303 0.02149,-0.056319 0.02964,-0.088925 0.0082,-0.032606 0.02149,-0.072622 0.02964,-0.088924 0.0082,-0.016303 0.02149,-0.056319 0.02964,-0.088925 0.0082,-0.032606 0.0202,-0.065952 0.02677,-0.074104 0.0066,-0.00815 0.02066,-0.060013 0.03132,-0.1152474 0.03859,-0.2000575 0.451948,-0.9963084 0.517211,-0.9963084 0.03681,0 0.04985,-0.017088 0.02896,-0.037973 -0.07063,-0.070627 0.579161,-0.6280467 0.907134,-0.7781825 0.505559,-0.2314289 1.444408,-0.2074532 1.748165,0.044644 0.03916,0.032498 0.08566,0.044628 0.103329,0.026955 0.06104,-0.061043 0.7417,0.6564761 0.875018,0.9224055 0.07356,0.1467253 0.16269,0.3028113 0.198072,0.3468576 0.03538,0.044046 0.07012,0.1194923 0.07718,0.1676577 0.0071,0.048165 0.03261,0.1321754 0.05676,0.1866891 0.02415,0.054514 0.04955,0.1191237 0.05644,0.1435779 0.0069,0.024454 0.0192,0.057801 0.02735,0.074104 0.0082,0.016303 0.02149,0.056319 0.02964,0.088925 0.0082,0.032606 0.02149,0.072622 0.02964,0.088925 0.0082,0.016303 0.02149,0.056319 0.02964,0.088924 0.0082,0.032606 0.02149,0.072622 0.02964,0.088925 0.0082,0.016303 0.02149,0.056319 0.02964,0.088924 0.0082,0.032606 0.02149,0.072622 0.02964,0.088925 0.0082,0.016303 0.02149,0.056319 0.02964,0.088925 0.0082,0.032606 0.02149,0.072622 0.02964,0.088924 0.0082,0.016303 0.02149,0.056319 0.02964,0.088925 0.0082,0.032606 0.02149,0.072622 0.02964,0.088924 0.0082,0.016303 0.02149,0.056319 0.02964,0.088925 0.0082,0.032606 0.02149,0.072622 0.02964,0.088925 0.0082,0.016303 0.02149,0.056319 0.02964,0.088924 0.0082,0.032606 0.02149,0.072622 0.02964,0.088924 0.0082,0.016303 0.02149,0.056319 0.02964,0.088924 0.0082,0.032606 0.02149,0.072622 0.02964,0.088925 0.0082,0.016303 0.02149,0.056319 0.02964,0.088925 0.0082,0.032606 0.02149,0.072622 0.02964,0.088924 0.0082,0.016303 0.02149,0.056319 0.02964,0.088925 0.0082,0.032606 0.02149,0.072622 0.02964,0.088924 0.0082,0.016303 0.02046,0.04965 0.02735,0.074104 0.07614,0.2701785 0.01586,0.2605444 1.566344,0.2503441 0.821107,-0.0054 1.539822,0.015872 1.64331,0.048643 0.49472,0.1566568 0.975326,0.5033917 1.380078,0.995663 0.02918,0.03549 0.122723,0.2719522 0.207871,0.5254705 0.173417,0.5163276 0.194197,0.9167216 0.07149,1.3775876 -0.04505,0.169215 -0.06697,0.32261 -0.0487,0.340877 0.01827,0.01827 0.0021,0.03321 -0.03595,0.03321 -0.03804,0 -0.06916,0.04059 -0.06916,0.0902 0,0.144456 -0.601732,0.715476 -0.903366,0.857262 -0.151941,0.07142 -0.307559,0.167573 -0.345818,0.21367 -0.03826,0.0461 -0.119647,0.08382 -0.180866,0.08382 -0.06122,0 -0.111307,0.02364 -0.111307,0.05253 0,0.02889 -0.0867,0.0937 -0.19267,0.144024 -0.105968,0.05032 -0.42349,0.220464 -0.705604,0.37809 l -0.512933,0.286592 0.07688,0.223643 c 0.04229,0.123004 0.07687,0.229346 0.07686,0.236317 -1.6e-5,0.007 0.03429,0.132721 0.07623,0.279446 0.09162,0.320527 0.07684,0.267481 0.165203,0.59283 0.03985,0.146725 0.09574,0.320128 0.124204,0.385339 0.02846,0.06521 0.08156,0.238614 0.118007,0.385339 0.03644,0.146726 0.07634,0.30679 0.08866,0.355698 0.01232,0.04891 0.06213,0.208973 0.110697,0.355698 0.263835,0.797108 0.220498,1.720784 -0.107083,2.282394 -0.25506,0.437276 -0.795689,0.832128 -1.305914,0.953782 -0.409524,0.09764 -1.118688,0.07388 -1.480587,-0.04961 -0.195634,-0.06676 -0.36459,-0.14411 -0.375459,-0.171897 -0.01087,-0.02779 -0.04391,-0.05052 -0.07343,-0.05052 -0.06232,0 -0.210044,-0.118767 -0.534587,-0.429802 -0.127581,-0.122271 -0.249584,-0.222311 -0.271119,-0.222311 -0.02154,0 -0.128193,-0.10004 -0.237018,-0.222311 -0.108825,-0.122271 -0.197884,-0.204395 -0.19791,-0.182497 -2.5e-5,0.0219 -0.10238,-0.05813 -0.227455,-0.177849 -0.125074,-0.119715 -0.34082,-0.313752 -0.479434,-0.431194 l -0.252026,-0.213531 -0.332849,0.317276 c -0.183066,0.174502 -0.355343,0.317276 -0.382837,0.317276 -0.0275,0 -0.215716,0.166734 -0.418268,0.370519 -0.686977,0.691154 -1.325263,1.118928 -1.791191,1.200439 -0.360569,0.06308 -0.90127,0.0766 -0.985338,0.02465 z m 4.395088,-5.307988 c 0.08151,-0.0172 0.181554,-0.03373 0.222311,-0.03673 0.04076,-0.003 0.0741,-0.0277 0.0741,-0.05487 0,-0.02717 0.05009,-0.0494 0.111307,-0.0494 0.06122,0 0.144518,-0.04002 0.185108,-0.08892 0.04059,-0.04891 0.096,-0.08892 0.12313,-0.08892 0.12883,0 0.635222,-0.658812 0.679264,-0.883716 0.01017,-0.05195 0.02258,-0.09445 0.02757,-0.09445 0.01978,0 0.06113,-0.252328 0.08745,-0.533547 0.02982,-0.318653 -0.102565,-0.904988 -0.260885,-1.155485 -0.352584,-0.557865 -0.925892,-0.888885 -1.605051,-0.926732 -0.791059,-0.04408 -1.167099,0.136286 -1.81003,0.868191 -0.08275,0.09421 -0.227812,0.493347 -0.290828,0.800242 -0.04228,0.205926 0.06368,1.044867 0.138056,1.092983 0.02737,0.01771 0.07006,0.09713 0.09486,0.176495 0.05105,0.163375 0.713717,0.833871 0.824133,0.833871 0.01556,0 0.103384,0.03057 0.195172,0.06793 0.09179,0.03736 0.242812,0.07549 0.335608,0.08474 0.0928,0.0092 0.182141,0.03023 0.198544,0.04663 0.03045,0.03045 0.403262,-0.002 0.670187,-0.05829 z" style="fill:#acffad;fill-rule:evenodd;stroke:#acffad;stroke-width:0.112031;stroke-linecap:round;stroke-miterlimit:4.5;paint-order:stroke fill markers;fill-opacity:1;stroke-opacity:1"></path>
  <path id="path837" d="" style="fill:#00d400;fill-rule:evenodd;stroke:#000000;stroke-width:0.112031;stroke-linecap:round;stroke-miterlimit:4.5;paint-order:stroke fill markers"></path>
  <path id="path839" d="m 20.018513,43.979423 c -0.01884,-0.01818 -0.383999,-0.08953 -0.584344,-0.114172 -0.04948,-0.0061 -0.122845,-0.03139 -0.163028,-0.05622 -0.04018,-0.02483 -0.09974,-0.02867 -0.132345,-0.0085 -0.03261,0.02015 -0.05928,0.0039 -0.05928,-0.03602 0,-0.03997 -0.01579,-0.05688 -0.03508,-0.03758 -0.01929,0.0193 -0.153025,-0.01547 -0.297177,-0.07726 -0.144153,-0.06179 -0.268422,-0.110681 -0.276153,-0.108645 -0.08459,0.02228 -0.883162,-0.455431 -0.923063,-0.552178 -0.01087,-0.02635 -0.04749,-0.04791 -0.08137,-0.04791 -0.06942,0 -0.785063,-0.65436 -0.800134,-0.731615 -0.0053,-0.02742 -0.05151,-0.08078 -0.10257,-0.118566 -0.08685,-0.06427 -0.564809,-0.836933 -0.569137,-0.920061 -0.0011,-0.02084 -0.0506,-0.09613 -0.110038,-0.167312 -0.100208,-0.120012 -0.162171,-0.129693 -0.852114,-0.13313 -0.409227,-0.002 -0.779877,-0.01587 -0.823668,-0.03074 -0.04379,-0.01487 -0.172992,-0.04084 -0.287111,-0.05771 -0.218992,-0.03238 -0.759246,-0.142201 -0.859604,-0.174745 -0.160683,-0.05211 -0.426028,-0.162419 -0.517921,-0.215317 -0.05662,-0.03259 -0.156658,-0.05926 -0.222311,-0.05926 -0.06565,0 -0.119371,-0.02083 -0.119371,-0.04629 0,-0.04011 -0.308568,-0.194654 -0.426837,-0.213777 -0.02282,-0.0037 -0.07484,-0.04006 -0.115602,-0.08081 -0.04076,-0.04076 -0.108784,-0.0741 -0.151171,-0.0741 -0.04239,0 -0.07707,-0.02174 -0.07707,-0.0483 0,-0.02657 -0.0867,-0.09387 -0.19267,-0.149557 -0.2603,-0.136797 -0.520693,-0.330521 -0.946505,-0.704167 -0.5229092,-0.458849 -0.9357294,-0.870259 -0.9357294,-0.932532 0,-0.02998 -0.055365,-0.07208 -0.1230335,-0.09355 -0.067668,-0.02148 -0.1092628,-0.05282 -0.092432,-0.06965 0.016831,-0.01683 -0.06786,-0.136653 -0.1882021,-0.26627 C 8.8330961,37.523825 8.7004357,37.35329 8.6586374,37.274476 8.616839,37.195662 8.556815,37.131179 8.5252507,37.131179 c -0.031564,0 -0.05739,-0.02998 -0.05739,-0.06663 0,-0.03665 -0.1067093,-0.226427 -0.2371319,-0.421736 C 8.1003063,36.447504 7.993597,36.275754 7.993597,36.261148 c 0,-0.01461 -0.065136,-0.164961 -0.1447462,-0.334122 -0.1538168,-0.326838 -0.2879196,-0.663262 -0.2643846,-0.663262 0.0078,0 -0.022386,-0.06669 -0.067085,-0.148208 -0.044699,-0.08151 -0.087663,-0.174884 -0.095476,-0.20749 -0.090225,-0.376513 -0.2426062,-1.208968 -0.2495909,-1.363508 -0.00295,-0.06521 -0.00771,-0.35491 -0.010588,-0.643775 -0.00465,-0.467517 -0.017861,-0.528514 -0.1202258,-0.555282 -0.063248,-0.01654 -0.114997,-0.0504 -0.114997,-0.07525 0,-0.02485 -0.074779,-0.07615 -0.166176,-0.114009 -0.091397,-0.03786 -0.2369579,-0.134465 -0.323469,-0.214683 -0.086511,-0.08022 -0.186709,-0.14585 -0.222662,-0.14585 -0.035953,0 -0.048881,-0.02668 -0.02873,-0.05928 0.020151,-0.03261 0.00172,-0.06128 -0.040964,-0.06371 -0.084096,-0.0048 -0.8255126,-0.815252 -0.8695092,-0.950472 -0.014773,-0.0454 -0.086298,-0.162583 -0.1589447,-0.2604 -0.072647,-0.09782 -0.2203478,-0.36459 -0.3282243,-0.59283 C 4.6799478,29.640778 4.5751374,29.440698 4.5549124,29.424395 4.5249584,29.400245 4.319313,28.80572 4.2832119,28.638896 c -0.00529,-0.02445 -0.016034,-0.06447 -0.02387,-0.08892 -0.00784,-0.02445 -0.020447,-0.07114 -0.028022,-0.103745 -0.00758,-0.03261 -0.019878,-0.07262 -0.027339,-0.08892 -0.00746,-0.0163 -0.022323,-0.06966 -0.033027,-0.118566 -0.010704,-0.04891 -0.033973,-0.155618 -0.051708,-0.237132 -0.017735,-0.08151 -0.049094,-0.214901 -0.069687,-0.296415 -0.076478,-0.302736 -0.033428,-1.869518 0.06027,-2.19347 0.014146,-0.04891 0.039268,-0.155618 0.055828,-0.237132 0.075872,-0.373479 0.1591161,-0.691698 0.2093601,-0.80032 0.2011094,-0.434777 0.3580173,-0.812284 0.3580173,-0.86136 0,-0.03164 0.023638,-0.05753 0.052528,-0.05753 0.028891,0 0.094291,-0.08801 0.1453336,-0.195573 0.104123,-0.219423 0.8913956,-1.051355 1.2545711,-1.325739 0.2287966,-0.172859 0.9651664,-0.618772 0.9938018,-0.601802 0.0077,0.0046 0.1496781,-0.03676 0.3154962,-0.09184 0.1658181,-0.05508 0.3525595,-0.110574 0.4149808,-0.12333 0.062421,-0.01275 0.2358769,-0.05123 0.3854568,-0.08549 0.2740615,-0.06278 1.6167073,-0.04578 1.8918644,0.02396 0.08151,0.02066 0.225418,0.04879 0.319787,0.06251 0.09437,0.01372 0.207747,0.05496 0.251952,0.09165 0.04421,0.03669 0.08037,0.05212 0.08037,0.03429 0,-0.03156 0.442524,0.11245 0.80032,0.26045 0.09782,0.04046 0.191188,0.07675 0.207491,0.08063 0.0163,0.0039 0.083,0.03578 0.148207,0.07087 0.06521,0.03509 0.194873,0.08208 0.288136,0.104416 0.09326,0.02234 0.293343,0.09538 0.444622,0.162316 0.151279,0.06694 0.328407,0.143319 0.393618,0.169738 0.06521,0.02642 0.240368,0.103794 0.389236,0.171941 0.148868,0.06815 0.302625,0.123905 0.341681,0.123905 0.03906,0 0.117336,0.02455 0.173953,0.05455 0.05662,0.03 0.263005,0.114191 0.458639,0.187092 0.195634,0.0729 0.380671,0.154694 0.411192,0.181763 0.05498,0.04876 0.09301,-0.0046 0.500798,-0.702543 0.252806,-0.432693 0.487672,-0.739139 0.848926,-1.107656 0.156391,-0.159535 0.284346,-0.312929 0.284346,-0.340877 0,-0.02795 0.02001,-0.0448 0.04446,-0.03746 0.02445,0.0073 0.124494,-0.06266 0.222311,-0.155575 0.223239,-0.212045 0.683555,-0.518341 1.096735,-0.729773 0.114119,-0.0584 0.220829,-0.121462 0.237132,-0.140143 0.03736,-0.04281 0.247475,-0.135112 0.326056,-0.143236 0.03261,-0.0034 0.119307,-0.03918 0.19267,-0.07958 0.07336,-0.0404 0.133386,-0.05912 0.133386,-0.04161 0,0.01751 0.09965,-0.02156 0.221434,-0.08684 0.121788,-0.06527 0.277406,-0.118681 0.345817,-0.118681 0.06841,0 0.142712,-0.01833 0.165113,-0.04073 0.04295,-0.04295 0.22862,-0.07941 0.418285,-0.08215 0.06226,-8.98e-4 0.159985,-0.02667 0.217172,-0.05728 0.05719,-0.03061 0.279675,-0.06261 0.494418,-0.07113 l 0.390443,-0.01549 0.0069,-1.659923 c 0.0038,-0.912958 0.01047,-1.687152 0.01486,-1.720432 0.02073,-0.157167 0.238269,-0.554871 0.287021,-0.524741 0.03025,0.01869 0.06889,-0.01914 0.08587,-0.08407 0.02121,-0.08111 0.135923,-0.152047 0.366528,-0.226661 0.3831,-0.123954 0.755696,-0.114385 1.06933,0.02746 0.20812,0.09413 0.473964,0.316642 0.488728,0.409073 0.0039,0.02445 0.03676,0.111155 0.07302,0.192669 0.04214,0.09476 0.07296,0.79984 0.08545,1.955025 0.01074,0.993749 0.02613,1.81341 0.03418,1.821468 0.0081,0.0081 0.119805,0.0312 0.248325,0.05142 0.128522,0.02022 0.267022,0.06417 0.307779,0.09767 0.04076,0.03349 0.0741,0.04361 0.0741,0.02247 0,-0.02113 0.08003,0.003 0.177849,0.05355 0.09782,0.05058 0.177849,0.07604 0.177849,0.05657 0,-0.01947 0.04192,0.0065 0.09316,0.05776 0.05124,0.05124 0.143034,0.09316 0.203991,0.09316 0.06096,0 0.12759,0.02711 0.14807,0.06025 0.02048,0.03314 0.06207,0.0449 0.09242,0.02614 0.03035,-0.01876 0.05519,-0.01022 0.05519,0.01898 0,0.0292 0.145705,0.126807 0.323788,0.216909 0.178084,0.0901 0.396731,0.231423 0.485883,0.314046 0.08915,0.08262 0.243567,0.199908 0.343146,0.260632 0.09958,0.06072 0.160965,0.110507 0.136417,0.110628 -0.02455,1.19e-4 0.06882,0.100262 0.207491,0.222533 0.138667,0.122271 0.282732,0.262327 0.320142,0.311236 0.03741,0.04891 0.126755,0.155618 0.198545,0.237132 0.07179,0.08151 0.214583,0.250644 0.31732,0.375845 0.102738,0.125201 0.246786,0.298604 0.320109,0.38534 0.07332,0.08674 0.133347,0.175803 0.133387,0.197928 4e-5,0.02213 0.04676,0.08691 0.103817,0.143973 0.05706,0.05706 0.10708,0.125659 0.111156,0.152442 0.0041,0.02678 0.01075,0.07034 0.01482,0.0968 0.0041,0.02646 0.06337,0.108173 0.131771,0.181589 0.0684,0.07342 0.130792,0.165149 0.138652,0.203848 0.0079,0.0387 0.111962,0.277225 0.231337,0.530057 0.119375,0.252831 0.219076,0.506266 0.221556,0.563188 0.0025,0.05692 0.03583,0.183527 0.0741,0.281344 l 0.06959,0.177849 1.719206,0.0017 c 0.945564,9.19e-4 1.772561,0.01685 1.837773,0.0354 0.433356,0.123277 0.76253,0.410069 0.85568,0.745509 0.135306,0.487249 0.04431,1.043135 -0.214782,1.312027 -0.139017,0.144278 -0.425136,0.326974 -0.546056,0.348675 -0.05216,0.0094 -0.849099,0.01644 -1.770968,0.01574 -1.304382,-9.96e-4 -1.681498,0.01543 -1.700349,0.07407 -0.01332,0.04144 -0.04005,0.235416 -0.05938,0.43105 -0.01934,0.195634 -0.05686,0.449068 -0.08338,0.563188 -0.02652,0.11412 -0.05369,0.234168 -0.06039,0.266773 -0.0523,0.254659 -0.09214,0.395027 -0.187419,0.660349 -0.06017,0.167558 -0.0931,0.320953 -0.07317,0.340877 0.01992,0.01992 6.56e-4,0.03623 -0.04282,0.03623 -0.04347,0 -0.06255,0.0165 -0.04239,0.03666 0.110071,0.110072 -1.208717,2.216097 -1.387716,2.216097 -0.03243,0 -0.04237,0.02687 -0.02207,0.0597 0.02029,0.03284 -0.0087,0.07722 -0.06454,0.09863 -0.05579,0.02141 -0.170862,0.109897 -0.255711,0.19664 -0.08485,0.08674 -0.287657,0.24735 -0.450686,0.356903 -0.163028,0.109554 -0.309753,0.214924 -0.326056,0.234154 -0.0163,0.01923 -0.203044,0.12492 -0.414981,0.234864 -0.507879,0.263466 -0.539258,0.290497 -0.475936,0.409985 0.04366,0.08239 0.09711,0.212726 0.14988,0.365463 0.02394,0.0693 0.103258,0.275525 0.148207,0.385339 0.04495,0.109815 0.124266,0.316036 0.148208,0.38534 0.02394,0.0693 0.103258,0.275524 0.148207,0.385339 0.04495,0.109815 0.124266,0.316036 0.148208,0.385339 0.0572,0.165572 0.112216,0.292805 0.185851,0.429802 0.04819,0.08967 0.06951,0.163028 0.04737,0.163028 -0.02214,0 -0.007,0.04002 0.03355,0.08892 0.04059,0.04891 0.05658,0.08892 0.03553,0.08892 -0.02105,0 0.0045,0.06529 0.05679,0.145082 0.05228,0.07979 0.09291,0.159827 0.09029,0.177849 -0.0026,0.01802 -0.0027,0.03944 -2.37e-4,0.04759 0.0025,0.0082 0.015,0.05484 0.02778,0.103745 0.01278,0.04891 0.08012,0.248988 0.149637,0.444622 0.06952,0.195634 0.13838,0.43573 0.153031,0.533547 0.01465,0.09782 0.03712,0.244542 0.04993,0.326056 0.06363,0.404867 0.0195,1.47385 -0.06659,1.61315 -0.01656,0.0268 -0.04278,0.118576 -0.05826,0.203946 -0.01548,0.08537 -0.06767,0.231654 -0.115985,0.325078 -0.04831,0.09342 -0.07348,0.169862 -0.05593,0.169862 0.06164,0 -0.399766,0.855606 -0.62804,1.164609 -0.126932,0.171821 -0.230786,0.330951 -0.230786,0.353622 0,0.02267 -0.160064,0.197357 -0.355698,0.388193 -0.195633,0.190836 -0.355697,0.367175 -0.355697,0.391864 0,0.02469 -0.07211,0.09791 -0.160243,0.162706 -0.08813,0.0648 -0.248198,0.193942 -0.355698,0.286985 -0.1075,0.09304 -0.195455,0.149901 -0.195455,0.12635 0,-0.02355 -0.0867,0.02274 -0.19267,0.102864 -0.283077,0.214042 -1.029675,0.561429 -1.437612,0.668912 -0.346581,0.09132 -0.428785,0.108948 -0.859603,0.184367 -0.225978,0.03956 -1.696046,0.08516 -1.728734,0.05362 z m 1.23325,-3.027061 c 0.556283,-0.08056 0.669491,-0.112303 1.060899,-0.297469 0.187094,-0.08851 0.389848,-0.210604 0.450566,-0.271321 0.06072,-0.06072 0.110396,-0.09972 0.110396,-0.08668 0,0.04001 0.414911,-0.388664 0.416005,-0.429801 5.33e-4,-0.02119 0.06095,-0.09529 0.1342,-0.164662 0.07325,-0.06937 0.190284,-0.309467 0.260081,-0.533547 0.176483,-0.566589 0.145634,-1.065808 -0.103021,-1.667182 -0.03033,-0.07336 -0.07871,-0.193411 -0.107512,-0.266773 -0.0288,-0.07336 -0.128456,-0.320128 -0.221462,-0.548368 -0.09301,-0.228239 -0.170796,-0.428319 -0.172867,-0.444622 -0.0092,-0.07279 -0.101798,-0.341437 -0.173612,-0.503905 -0.128066,-0.289728 -0.194472,-0.457357 -0.305306,-0.770679 -0.05767,-0.163028 -0.14192,-0.355032 -0.187224,-0.426676 -0.0453,-0.07164 -0.07631,-0.138337 -0.0689,-0.148208 0.01988,-0.02649 -0.06001,-0.288705 -0.149965,-0.492209 -0.04324,-0.09782 -0.104983,-0.244543 -0.137213,-0.326057 -0.03223,-0.08151 -0.134697,-0.334949 -0.227704,-0.563188 -0.09301,-0.22824 -0.172427,-0.42832 -0.17649,-0.444622 -0.0041,-0.0163 -0.02779,-0.116343 -0.05272,-0.222312 -0.02493,-0.105968 -0.06656,-0.192669 -0.0925,-0.192669 -0.02594,0 -0.06601,-0.08583 -0.08905,-0.190724 -0.02304,-0.104898 -0.06244,-0.231615 -0.08755,-0.281594 -0.02511,-0.04998 -0.09129,-0.210918 -0.147062,-0.357644 -0.05577,-0.146725 -0.13966,-0.339475 -0.186419,-0.428334 -0.04676,-0.08886 -0.08454,-0.175431 -0.08396,-0.192384 0.0039,-0.114736 -0.07863,-0.387092 -0.117356,-0.387092 -0.02594,0 -0.06576,-0.0867 -0.08849,-0.19267 -0.02273,-0.105968 -0.05365,-0.213572 -0.06872,-0.239118 -0.03468,-0.0588 -0.19761,0.148673 -0.380314,0.484289 -0.180466,0.331506 -0.229873,0.411759 -0.395657,0.642682 -0.07456,0.103849 -0.163867,0.270029 -0.198469,0.369288 -0.0346,0.09926 -0.08698,0.180471 -0.116397,0.180471 -0.02942,0 -0.05348,0.04002 -0.05348,0.08892 0,0.04891 -0.02825,0.08892 -0.06278,0.08892 -0.03453,0 -0.04629,0.02668 -0.02614,0.05928 0.02015,0.03261 0.01468,0.05928 -0.01216,0.05928 -0.02684,0 -0.09756,0.113379 -0.157153,0.251953 -0.0596,0.138574 -0.142657,0.291968 -0.184581,0.340877 -0.04192,0.04891 -0.188176,0.315682 -0.325006,0.592829 -0.136829,0.277148 -0.273983,0.551035 -0.304786,0.608637 -0.0308,0.0576 -0.09381,0.271021 -0.14002,0.474264 -0.04621,0.203243 -0.123528,0.529596 -0.17182,0.72523 -0.151663,0.614389 -0.215499,1.279322 -0.193508,2.015621 0.01169,0.391268 0.02669,0.711396 0.03333,0.711396 0.0066,0 0.02255,0.05533 0.03535,0.122953 0.08794,0.464618 0.379802,1.344601 0.457371,1.379005 0.02466,0.01094 0.03171,0.04112 0.01566,0.06708 -0.01604,0.02595 0.03715,0.14491 0.118197,0.264343 0.08105,0.119433 0.14772,0.249313 0.148157,0.288622 0.0028,0.254177 0.880079,1.060956 1.304209,1.199439 0.159824,0.05218 0.894127,0.13303 0.956171,0.105273 0.02094,-0.0094 0.140983,-0.03193 0.266773,-0.05015 z m -6.373027,-3.12324 c 0.02229,-0.03607 0.02055,-0.121157 -0.0039,-0.18909 -0.0488,-0.135764 -0.03188,-1.389587 0.02446,-1.813079 0.01952,-0.146725 0.04605,-0.360144 0.05896,-0.474264 0.02416,-0.213654 0.03981,-0.295596 0.174313,-0.912826 0.09158,-0.420275 0.317361,-1.269763 0.371884,-1.39921 0.0206,-0.04891 0.04309,-0.108932 0.04998,-0.133386 0.0069,-0.02445 0.01785,-0.05113 0.02435,-0.05928 0.0065,-0.0082 0.0237,-0.07942 0.03823,-0.158376 0.01453,-0.07896 0.05583,-0.178995 0.09178,-0.222311 0.08583,-0.10342 0.02684,-0.09938 -0.236611,0.01621 -0.119047,0.05223 -0.283143,0.122176 -0.364657,0.155429 -0.08151,0.03325 -0.214901,0.09369 -0.296415,0.134305 -0.08151,0.04061 -0.181554,0.06182 -0.222311,0.04712 -0.04076,-0.0147 -0.0741,-0.0023 -0.0741,0.02762 0,0.02989 -0.03335,0.0574 -0.0741,0.06115 -0.04076,0.0037 -0.289568,0.0602 -0.552914,0.125467 -0.263345,0.06526 -0.636828,0.135038 -0.829961,0.155051 -0.493904,0.05118 -1.982827,0.05357 -2.527076,0.0041 -0.420461,-0.03825 -0.455203,-0.03303 -0.437621,0.06573 0.0105,0.059 0.0373,0.20806 0.05956,0.331245 0.06243,0.345591 0.263885,0.94133 0.374694,1.108032 0.05486,0.08254 0.105978,0.189355 0.113584,0.23737 0.0076,0.04801 0.05124,0.114709 0.09695,0.148207 0.04572,0.0335 0.124693,0.14094 0.175501,0.238756 0.05081,0.09782 0.141608,0.234097 0.20178,0.302843 0.06017,0.06875 0.209221,0.242149 0.331221,0.385339 0.319729,0.375261 0.302154,0.357515 0.610095,0.616044 0.15535,0.130422 0.364464,0.310494 0.464698,0.40016 0.100235,0.08966 0.216315,0.163028 0.257957,0.163028 0.04164,0 0.07571,0.02668 0.07571,0.05928 0,0.03261 0.03675,0.05928 0.08167,0.05928 0.04491,0 0.114167,0.03916 0.153893,0.08703 0.03972,0.04787 0.08968,0.0824 0.111004,0.07675 0.02133,-0.0057 0.172163,0.05156 0.335191,0.127143 0.492816,0.22848 1.261493,0.359729 1.342181,0.229173 z m 9.475177,-7.664668 c 0.151288,-0.08909 0.46997,-0.337114 0.615423,-0.478981 0.221894,-0.216424 0.516916,-0.557496 0.482225,-0.557496 -0.01836,0 0.02101,-0.05839 0.08749,-0.129744 0.06648,-0.07136 0.120875,-0.151392 0.120875,-0.177849 0,-0.02646 -4e-5,-0.06147 -1.18e-4,-0.07779 -5e-5,-0.01633 0.05224,-0.127317 0.116188,-0.246639 0.06395,-0.119323 0.102435,-0.239349 0.08552,-0.266726 -0.01692,-0.02738 3.56e-4,-0.04978 0.03836,-0.04978 0.03802,0 0.05477,-0.03741 0.03722,-0.08313 -0.01754,-0.04572 -0.01541,-0.09962 0.0047,-0.119771 0.02015,-0.02015 0.08047,-0.210759 0.134043,-0.423568 0.07066,-0.280689 0.09367,-0.601833 0.08382,-1.169634 -0.01465,-0.844274 -0.02756,-0.947538 -0.166575,-1.3319 -0.05028,-0.139028 -0.09275,-0.265609 -0.09438,-0.281292 -0.0098,-0.09394 -0.280907,-0.600252 -0.342593,-0.639715 -0.04076,-0.02608 -0.0741,-0.07849 -0.0741,-0.116481 0,-0.03799 -0.05187,-0.123366 -0.115269,-0.189724 -0.0634,-0.06636 -0.283486,-0.296383 -0.489084,-0.511167 -0.631789,-0.660013 -1.461652,-1.082949 -2.389437,-1.217765 -0.673424,-0.09785 -1.782297,0.02704 -2.371319,0.267082 -0.28983,0.118114 -0.836943,0.399275 -0.9083,0.466775 -0.04309,0.04076 -0.102647,0.0741 -0.132357,0.0741 -0.07834,0 -0.762191,0.719923 -0.8015,0.843773 -0.01828,0.05761 -0.05523,0.104755 -0.08211,0.104755 -0.02687,0 -0.06513,0.06483 -0.08502,0.144061 -0.01989,0.07923 -0.07371,0.181617 -0.119612,0.227518 -0.0459,0.0459 -0.06587,0.108842 -0.04437,0.139871 0.04559,0.0658 0.644272,0.331662 0.98761,0.438569 0.130423,0.04061 0.336124,0.123588 0.457114,0.184396 0.12099,0.06081 0.267715,0.119884 0.326056,0.131279 0.137531,0.02686 0.265696,0.07665 0.698904,0.271507 0.195634,0.08799 0.482416,0.195088 0.637292,0.237985 0.154877,0.0429 0.281595,0.10278 0.281595,0.133072 0,0.03029 0.02001,0.0433 0.04446,0.0289 0.02445,-0.0144 0.111155,0.0017 0.192669,0.03571 0.08151,0.03404 0.264774,0.10482 0.407244,0.157292 0.211677,0.07796 0.275947,0.138535 0.35153,0.331312 0.05087,0.129748 0.107708,0.249246 0.126303,0.265548 0.0186,0.0163 0.04213,0.06966 0.05231,0.118566 0.03184,0.153055 0.613739,1.56718 0.676947,1.645103 0.03306,0.04076 0.04289,0.0741 0.02184,0.0741 -0.02105,0 0.0054,0.06669 0.05884,0.148208 0.05341,0.08151 0.07744,0.148207 0.05339,0.148207 -0.02404,0 -0.01401,0.0358 0.02231,0.07956 0.03631,0.04376 0.04847,0.09711 0.02702,0.118566 -0.02145,0.02145 -0.0079,0.03901 0.03016,0.03901 0.03804,0 0.0648,0.02001 0.05946,0.04446 -0.0053,0.02445 0.05076,0.177849 0.124665,0.340878 0.0739,0.163028 0.168923,0.389785 0.211161,0.503905 0.208164,0.562423 0.195508,0.544852 0.332651,0.461828 0.06949,-0.04207 0.172401,-0.103605 0.228683,-0.136747 z m -12.091942,0.0059 c 0.305595,-0.0392 0.539068,-0.08494 0.755858,-0.148064 0.105969,-0.03086 0.19267,-0.04606 0.19267,-0.03379 0,0.01227 0.146725,-0.02817 0.326056,-0.08987 0.179331,-0.0617 0.326057,-0.09701 0.326057,-0.07847 0,0.01854 0.04002,4.74e-4 0.08892,-0.04009 0.04891,-0.04059 0.08892,-0.05393 0.08892,-0.02964 0,0.02429 0.04002,0.01095 0.08892,-0.02964 0.04891,-0.04059 0.08892,-0.0576 0.08892,-0.0378 0,0.0198 0.156695,-0.04363 0.348211,-0.140949 0.191516,-0.09732 0.361661,-0.176948 0.3781,-0.176948 0.01644,0 0.12639,-0.04032 0.244335,-0.0896 0.117946,-0.04928 0.225113,-0.08263 0.238148,-0.0741 0.01304,0.0085 0.07319,-0.02567 0.13367,-0.07598 0.06048,-0.05031 0.176663,-0.120161 0.258177,-0.155214 0.263253,-0.113207 0.858722,-0.404536 0.889244,-0.435059 0.0163,-0.0163 0.203044,-0.119965 0.414981,-0.230362 0.92755,-0.483154 1.067094,-0.562858 1.067094,-0.609492 0,-0.02717 0.04002,-0.04939 0.08892,-0.04939 0.192721,0 0.07339,-0.100134 -0.204085,-0.171247 -0.161156,-0.0413 -0.301212,-0.09316 -0.311236,-0.115228 -0.02504,-0.05514 -1.090652,-0.484204 -1.202555,-0.484204 -0.04964,0 -0.09025,-0.02223 -0.09025,-0.0494 0,-0.02717 -0.03335,-0.04966 -0.0741,-0.04996 -0.04076,-2.97e-4 -0.260845,-0.08269 -0.489085,-0.183069 -0.228239,-0.100379 -0.454997,-0.191274 -0.503905,-0.201989 -0.04891,-0.01071 -0.102263,-0.03621 -0.118566,-0.05665 -0.0163,-0.02044 -0.203044,-0.104007 -0.414981,-0.185695 -0.211936,-0.08169 -0.438694,-0.169237 -0.503905,-0.194552 -0.06521,-0.02531 -0.138574,-0.04179 -0.163028,-0.03662 -0.02445,0.0052 -0.04446,-0.01727 -0.04446,-0.04987 0,-0.03261 -0.04493,-0.05928 -0.09985,-0.05928 -0.05492,0 -0.208311,-0.05032 -0.340877,-0.111819 -0.454459,-0.210836 -1.367399,-0.569709 -1.411866,-0.555001 -0.02445,0.0081 -0.04446,-0.01642 -0.04446,-0.05446 0,-0.03804 -0.01574,-0.05342 -0.03499,-0.03418 -0.01924,0.01924 -0.252668,-0.06018 -0.518726,-0.176497 -0.742723,-0.324707 -1.02497,-0.394368 -1.580475,-0.390077 -0.4814062,0.0037 -0.614333,0.01869 -0.9485273,0.106809 -0.081514,0.02149 -0.1815541,0.04138 -0.2223111,0.0442 -0.040757,0.0028 -0.074104,0.02735 -0.074104,0.05452 0,0.02717 -0.039111,0.0494 -0.086913,0.0494 -0.091996,0 -0.5149797,0.182366 -0.5651996,0.243681 -0.016303,0.0199 -0.1097754,0.07722 -0.207717,0.127362 -0.2508351,0.128424 -0.6815275,0.516609 -0.6815275,0.614264 0,0.04498 -0.024533,0.08179 -0.054519,0.08179 -0.082292,0 -0.2313262,0.518685 -0.2606081,0.906997 -0.029318,0.388794 0.084182,0.824885 0.3116808,1.197548 0.18588,0.304488 0.8156155,0.935267 1.0597633,1.061521 0.1037437,0.05365 0.188625,0.123534 0.188625,0.155303 0,0.03177 0.020008,0.05203 0.044462,0.04503 0.03941,-0.01128 0.2948468,0.130637 0.6395379,0.355328 0.063976,0.0417 0.1630054,0.0915 0.2200652,0.11066 0.05706,0.01916 0.1037452,0.0584 0.1037452,0.0872 0,0.0288 0.051132,0.05237 0.1136257,0.05237 0.062494,0 0.1230023,0.02813 0.1344629,0.06251 0.011461,0.03438 0.060369,0.07037 0.1086853,0.07997 0.048317,0.0096 0.1278643,0.03227 0.1767723,0.05037 0.04891,0.0181 0.128941,0.04541 0.177849,0.06069 0.119794,0.03742 0.172453,0.05499 0.414981,0.138404 0.194094,0.06676 1.014964,0.06588 1.541357,-0.0016 z" style="fill:#acffad;fill-rule:evenodd;stroke:#acffad;stroke-width:0.112031;stroke-linecap:round;stroke-miterlimit:4.5;paint-order:stroke fill markers;opacity:1;fill-opacity:1;stroke-opacity:1"></path>
</svg></svg></g></svg>